<svg xmlns="http://www.w3.org/2000/svg" viewBox="0 0 90.9 54.09"><defs><style>.cls-1{fill:#fff;}</style></defs><g id="레이어_2" data-name="레이어 2"><g id="Layer_1" data-name="Layer 1"><path class="cls-1" d="M0,46.48H1.83a3.55,3.55,0,0,1,2.34.89,3,3,0,0,1,.58.65,3.81,3.81,0,0,1-.32,4.82A3.6,3.6,0,0,1,1.73,54H0V46.48Zm.71.72v6.07h1A2.88,2.88,0,0,0,4.25,51.9a3.11,3.11,0,0,0-.51-4,3.38,3.38,0,0,0-.58-.4,2.8,2.8,0,0,0-1.33-.34Z"/><path class="cls-1" d="M9.45,46.48h3.73v.7h-3v2.67h2.42v.71H10.16v2.68h3V54H9.44V46.49Z"/><path class="cls-1" d="M19.05,46.39h.09a2.17,2.17,0,0,1,1,.27,2.76,2.76,0,0,1,.35.24l.23.21a2.35,2.35,0,0,1,.27.36l.12.21h0l-.65.3a2,2,0,0,0-.27-.38,1.5,1.5,0,0,0-1.12-.49h0a1.48,1.48,0,0,0-1.05.38,1.76,1.76,0,0,0-.21.24,1.41,1.41,0,0,0-.22.77.9.9,0,0,0,.26.68,1.47,1.47,0,0,0,.46.3,7.86,7.86,0,0,0,1.47.46,2,2,0,0,1,.44.17,1.69,1.69,0,0,1,.44.31,2.37,2.37,0,0,1,.24.25,1.54,1.54,0,0,1,.14.22,2.08,2.08,0,0,1,.25,1h0v.06A2.27,2.27,0,0,1,21,53a2.13,2.13,0,0,1-1.1.94,2.31,2.31,0,0,1-.84.16H19a2.51,2.51,0,0,1-1-.25,4.18,4.18,0,0,1-.36-.23,2.79,2.79,0,0,1-.51-.52,4.64,4.64,0,0,1-.28-.45l-.09-.2.66-.28a2.9,2.9,0,0,0,.26.46,2.32,2.32,0,0,0,.58.54,1.69,1.69,0,0,0,.81.21h0a1.67,1.67,0,0,0,.93-.29,1.25,1.25,0,0,0,.23-.2,1.48,1.48,0,0,0,.3-.53,1.9,1.9,0,0,0,.07-.46h0a1.23,1.23,0,0,0-.37-.91,1,1,0,0,0-.3-.21.69.69,0,0,0-.21-.1l-.53-.13a6.2,6.2,0,0,1-1.3-.47,1.66,1.66,0,0,1-1-1.54v0a2.1,2.1,0,0,1,.39-1.21A2.38,2.38,0,0,1,17.5,47a2.21,2.21,0,0,1,.32-.25,2,2,0,0,1,.49-.24A2.54,2.54,0,0,1,19.05,46.39Z"/><path class="cls-1" d="M25.2,46.48h.71V54H25.2V46.49Z"/><path class="cls-1" d="M33.33,46.48h.06a3.29,3.29,0,0,1,2.39,1.06,4.14,4.14,0,0,1,.61.85l0,.06a5,5,0,0,1-.64.32h0a3.06,3.06,0,0,0-.51-.73,2.57,2.57,0,0,0-1.88-.84h0a2.63,2.63,0,0,0-2,1,3.23,3.23,0,0,0-.7,2v0a3.2,3.2,0,0,0,.7,2,2.58,2.58,0,0,0,3.86.28A3.56,3.56,0,0,0,36,51.17a2.61,2.61,0,0,0,.08-.37H34l0,0v-.69h2.85a5.28,5.28,0,0,1-.15,1.22,3.9,3.9,0,0,1-1.32,2A3.28,3.28,0,0,1,31,53a3.82,3.82,0,0,1-1.11-2.72v-.06a3.87,3.87,0,0,1,1-2.61,3.48,3.48,0,0,1,.74-.62A3.29,3.29,0,0,1,33.33,46.48Z"/><path class="cls-1" d="M40.92,46.48h.88S42.74,48,44.54,51l1.16,1.9h0V46.48h.69l0,0V54l0,0h-.84a6.48,6.48,0,0,1-.39-.62l-2.74-4.49-.78-1.27V54l0,0h-.72l0,0V46.5Z"/><path class="cls-1" d="M56.06,46.48h1a5.27,5.27,0,0,1,.26.64l2.39,5.8h0l2.65-6.44h1V54h-.73l0,0V47.85h0L60,54h-.67a2.94,2.94,0,0,1-.23-.53s-.57-1.39-1.7-4.16c-.35-.83-.55-1.31-.6-1.45h0V54l0,0h-.73V46.48Z"/><path class="cls-1" d="M70.65,46.48a1.85,1.85,0,0,1,.16.39l2.7,6.94.07.17h-.77s-.18-.42-.46-1.17a6.15,6.15,0,0,0-.25-.6H68.44s-.2.49-.55,1.38c-.08.24-.14.36-.15.39H67l2.92-7.5Zm-.38,1-1.56,4h3.12l-1.56-4Z"/><path class="cls-1" d="M77.25,46.48H79.6a2.48,2.48,0,0,1,1.87.86,2.41,2.41,0,0,1,.58,1.55V49a2.46,2.46,0,0,1-.8,1.78,2.6,2.6,0,0,1-.84.48L82,54h-.85s-.23-.38-.61-1.07l-.86-1.53H78V54l0,0h-.68l0,0V46.5Zm.7.72v3.45H79.6A1.75,1.75,0,0,0,81,49.93a1.71,1.71,0,0,0,.31-1v-.07a1.66,1.66,0,0,0-.67-1.33,1.77,1.77,0,0,0-1.07-.36Z"/><path class="cls-1" d="M85.07,46.48H86c.06.08.72,1.1,2,3.06l0,0,2-3.09h.88v0l-2.54,3.8V54h-.73V50.3l-2.54-3.8Z"/><path class="cls-1" d="M48.1,15.17c0-1.36-.69-2.08-1.81-2.08-2.16,0-3.57,2.85-3.57,4.89,0,1.47.8,2.06,1.59,2.06a2.11,2.11,0,0,0,2-1.65.41.41,0,0,0-.79-.17,1.32,1.32,0,0,1-1.12,1c-.51,0-.84-.51-.84-1.24,0-1.79,1.12-4.07,2.61-4.07.51,0,1,.36,1,1.3A14,14,0,0,1,47,17.39a15.48,15.48,0,0,0-.22,1.67c0,.39.12.94.55.94a.44.44,0,0,0,.45-.41.48.48,0,0,0-.07-.24.67.67,0,0,1,0-.25,12.79,12.79,0,0,1,.19-1.57A13.53,13.53,0,0,0,48.1,15.17Z"/><path class="cls-1" d="M50,20a.43.43,0,0,0,.44-.37l.11-.65c.46-2.51.85-4.91,2.89-5a.4.4,0,0,0,.41-.39.44.44,0,0,0-.47-.43,2.6,2.6,0,0,0-2.47,1.88c0-1-.51-1.65-.89-1.65a.44.44,0,0,0-.41.43.38.38,0,0,0,.12.32,1.81,1.81,0,0,1,.43,1.45c0,.65-.55,3.87-.55,4A.4.4,0,0,0,50,20Z"/><path class="cls-1" d="M68.6,11.26a14.6,14.6,0,0,0-3.73-7.15A11.85,11.85,0,0,0,55.44,0a12.1,12.1,0,0,0-8.87,5c-.06.09-.19.25-.31.41L45.91,5a12.07,12.07,0,0,0-8.86-5c-4.64-.25-8.13,2.76-9.42,4.06a14,14,0,0,0-3.74,7.18.45.45,0,0,0,.88.18,13.29,13.29,0,0,1,3.51-6.72c1.2-1.22,4.45-4,8.72-3.8a11.15,11.15,0,0,1,8.18,4.6c.17.24.72.81.78.87a.48.48,0,0,0,.34.14.51.51,0,0,0,.34-.17s.5-.61.67-.84A11.11,11.11,0,0,1,55.48.92,11.22,11.22,0,0,1,64.2,4.71a13.82,13.82,0,0,1,2.92,14.34A24.92,24.92,0,0,1,66,21.59a1.61,1.61,0,0,0-.12.23,14.38,14.38,0,0,1-.74,1.31,17.43,17.43,0,0,1-1,1.43l-.09.12a4.27,4.27,0,0,1-.51.43,2.79,2.79,0,0,1-2.81.18,2.6,2.6,0,0,1-1-1.93.41.41,0,0,0,0-.19,2.15,2.15,0,0,0-1.13-1.63,19.28,19.28,0,0,0,.71-4.13c.06-.92.19-2.85.19-3.73a.4.4,0,0,0-.39-.44.44.44,0,0,0-.45.42c0,2.37-1.45,5.44-2.65,5.44-.67,0-.75-1.26-.75-1.83a20.47,20.47,0,0,1,.43-3.49l0-.08a.44.44,0,0,0-.43-.46c-.37,0-.43.32-.47.46a19.83,19.83,0,0,0-.43,3.57c0,1.38.41,2.69,1.63,2.69,1,0,2-1.14,2.49-2.51a21.56,21.56,0,0,1-.72,3.77A4.12,4.12,0,0,0,56.43,21c-2.07,0-4.6,1.28-4.6,3.3A1.62,1.62,0,0,0,53.66,26a5.33,5.33,0,0,0,4.54-3.63,1.06,1.06,0,0,1,.6.89.25.25,0,0,0,0,.12,3.47,3.47,0,0,0,1.38,2.66,2.93,2.93,0,0,0,1.64.48,3.93,3.93,0,0,0,2.86-1.24,4.36,4.36,0,0,0,.55-.73c.21-.28.44-.61.65-.94a15.77,15.77,0,0,0,.77-1.39c0-.08.09-.16.12-.22A24.12,24.12,0,0,0,68,19.37,14.71,14.71,0,0,0,68.6,11.26Zm-14.82,14a1,1,0,0,1-1.07-.92c0-1.4,2.09-2.44,3.72-2.44a4.13,4.13,0,0,1,1,.12C56.68,23.93,55.13,25.21,53.78,25.21Z"/><path class="cls-1" d="M62.42,27.57a.46.46,0,0,0-.63.08A13.6,13.6,0,0,1,59.5,30l-.71.64A33.9,33.9,0,0,1,46.53,37.6l-.06,0h0a.71.71,0,0,1-.34,0h0l0,0a34.15,34.15,0,0,1-12.4-7,32.81,32.81,0,0,1-7.16-9.14,2.1,2.1,0,0,0-.17-.33l0-.07c-.34-.65-.66-1.32-.94-2A7,7,0,0,1,25,17.65a4.69,4.69,0,0,1,.05-2.13A5.67,5.67,0,0,1,26.5,13a4.13,4.13,0,0,1,2.87-1.06,3.92,3.92,0,0,1,2,.7,4,4,0,0,1,1.06,1.11h0s0,0,0,.06a1.89,1.89,0,0,1,.3,1.19,16.76,16.76,0,0,1-.53,3.38A10.42,10.42,0,0,0,32,19.61a.41.41,0,0,0,.41.45.4.4,0,0,0,.41-.35c.65-3.4,1.81-5.68,2.83-5.68.85,0,.87,1.47.87,1.91a15.73,15.73,0,0,1-.26,2.45c-.08.41-.17,1-.17,1.08a.43.43,0,0,0,.43.45c.35,0,.37-.15.59-1.49.37-2.3,1.39-4.42,2.49-4.42.67,0,.87,1,.87,2.1a14,14,0,0,1-.53,3.42.25.25,0,0,0,0,.12.45.45,0,0,0,.45.45.49.49,0,0,0,.43-.31,16.65,16.65,0,0,0,.53-3.72c0-2.12-.74-2.92-1.63-2.94-1.06,0-1.85.78-2.36,2.3-.08-1.77-.9-2.26-1.59-2.26s-1.57.49-2.18,2a2.79,2.79,0,0,0-.29-1.8.41.41,0,0,0,0-.09,4.85,4.85,0,0,0-1.3-1.37A4.76,4.76,0,0,0,29.42,11,5,5,0,0,0,25.9,12.3h0a6.12,6.12,0,0,0-1.73,3,5.64,5.64,0,0,0-.07,2.5,8.89,8.89,0,0,0,.37,1.5.22.22,0,0,0,0,.1l0,.07a13.82,13.82,0,0,0,1,2.1v0a.49.49,0,0,0,.07.19l.09.12a33.8,33.8,0,0,0,7.39,9.44,35.19,35.19,0,0,0,12.73,7.16h0l.12,0,.19,0a2.13,2.13,0,0,0,.46,0l.17,0h0l.06,0,.09,0h0a34.66,34.66,0,0,0,12.44-7.09l.71-.63a14.31,14.31,0,0,0,2.4-2.49A.45.45,0,0,0,62.42,27.57Z"/></g></g></svg>